#!OML:ASF F:\twosubjects\two\wednesday\Session 1\rory1.ASF
:FULLY-SPECIFIED
:DEGREES
1567
root 10.751 17.6221 -21.8895 2.47949 -11.2381 0.0906687
lowerback 8.50614 2.14472 -5.01471
upperback 4.05961 2.42234 -1.70836
thorax -0.685418 1.15577 0.828534
lowerneck -2.17582 -1.06503 -1.2435
upperneck 1.36663 -1.41877 1.85615
head 0.801827 -0.695954 0.755703
rclavicle 1.35174e-014 1.59028e-015
rhumerus -25.1116 -0.908532 -76.1555
rradius 55.3138
rwrist -14.1027
rhand -28.7316 46.595
rfingers 7.12502
rthumb -2.09254 16.6255
lclavicle 1.35174e-014 1.59028e-015
lhumerus -22.1742 5.55118 77.0136
lradius 55.0872
lwrist 0.546601
lhand -21.5893 10.2868
lfingers 7.12502
lthumb 4.80535 -319.788
rfemur -33.2618 12.2334 10.9162
rtibia 33.1914
rfoot -7.83619 -9.04416
rtoes 3.52824
lfemur -13.1415 -0.947195 -14.9387
ltibia 34.807
lfoot -21.4264 -0.542129
ltoes -15.0018
1568
root 10.7729 17.6415 -22.0007 2.39391 -11.7309 -0.113502
lowerback 8.42436 2.21031 -4.6616
upperback 4.15447 2.54573 -1.6239
thorax -0.538785 1.21687 0.712606
lowerneck -2.19344 -1.05372 -1.18988
upperneck 1.60768 -1.40191 1.56564
head 0.875639 -0.689835 0.657066
rclavicle -7.35503e-015 1.27222e-014
rhumerus -24.7944 -0.121264 -76.4072
rradius 55.3978
rwrist -14.1324
rhand -29.1469 46.6912
rfingers 7.12502
rthumb -2.4936 16.7261
lclavicle -7.35503e-015 1.27222e-014
lhumerus -23.0806 6.1145 77.2263
lradius 55.2611
lwrist 0.451061
lhand -22.01 10.7437
lfingers 7.12502
lthumb 4.39915 -319.322
rfemur -32.481 11.8239 11.4243
rtibia 33.4918
rfoot -8.30451 -9.04509
rtoes 2.42158
lfemur -13.2298 -1.71091 -14.8536
ltibia 34.7526
lfoot -21.3706 0.623001
ltoes -13.6936
1569
root 10.7942 17.6585 -22.1106 2.32911 -12.1339 -0.187591
lowerback 8.38242 2.29688 -4.4715
upperback 4.14979 2.67798 -1.53537
thorax -0.523317 1.28429 0.687302
lowerneck -2.19131 -1.11417 -1.2377
upperneck 2.01333 -1.48248 1.45915
head 1.00224 -0.731146 0.631026
rclavicle 3.18055e-015 -5.56597e-015
rhumerus -24.8616 0.496746 -76.4645
rradius 55.7366
rwrist -13.9134
rhand -28.7053 46.4629
rfingers 7.12502
rthumb -2.06713 16.4932
lclavicle 3.18055e-015 -5.56597e-015
lhumerus -24.0577 6.47887 77.5043
lradius 55.3731
lwrist 0.559271
lhand -22.2839 10.844
lfingers 7.12502
lthumb 4.13459 -319.216
rfemur -31.7004 10.9892 11.8487
rtibia 33.9918
rfoot -8.85663 -9.1951
rtoes 1.79378
lfemur -13.3893 -2.42744 -14.8973
ltibia 34.7064
lfoot -21.3681 1.90611
ltoes -13.8152
1570
root 10.8098 17.6749 -22.2234 2.15656 -12.5834 -0.185102
lowerback 8.54244 2.2882 -4.4545
upperback 4.0803 2.65618 -1.43546
thorax -0.686509 1.27619 0.774902
lowerneck -2.48911 -0.893854 -1.45311
upperneck 2.93184 -1.18469 1.42019
head 1.34008 -0.583404 0.660319
rclavicle 5.56597e-015 -1.03368e-014
rhumerus -24.6851 1.27414 -76.6224
rradius 55.767
rwrist -13.4532
rhand -27.8549 45.3471
rfingers 7.12502
rthumb -1.24573 15.371
lclavicle 5.56597e-015 -1.03368e-014
lhumerus -25.2356 7.18255 77.5821
lradius 55.466
lwrist 0.912282
lhand -22.2135 10.5398
lfingers 7.12502
lthumb 4.20262 -319.522
rfemur -30.8828 10.4268 12.1236
rtibia 34.698
rfoot -9.46191 -9.75493
rtoes 1.60421
lfemur -13.4472 -2.94925 -14.9862
ltibia 34.6775
lfoot -21.328 3.07091
ltoes -14.269
1571
root 10.8144 17.6883 -22.3344 1.95905 -12.9717 -0.139014
lowerback 8.72236 2.17372 -4.51428
upperback 3.97058 2.48584 -1.35591
thorax -0.897152 1.19481 0.897438
lowerneck -2.45116 -0.545072 -1.66341
upperneck 3.47206 -0.71206 1.31259
head 1.49865 -0.352526 0.672922
rclavicle 3.79679e-014 -2.38542e-014
rhumerus -24.3314 2.45966 -76.9309
rradius 55.5363
rwrist -12.9413
rhand -28.1579 44.5667
rfingers 7.12502
rthumb -1.53843 14.5925
lclavicle 3.79679e-014 -2.38542e-014
lhumerus -26.731 8.12425 77.4359
lradius 55.8204
lwrist 1.331
lhand -22.1315 10.1862
lfingers 7.12502
lthumb 4.28176 -319.877
rfemur -30.0528 10.1544 12.3023
rtibia 35.6052
rfoot -10.1599 -10.9179
rtoes 2.64912
lfemur -13.4769 -3.46841 -15.0461
ltibia 34.671
lfoot -21.3546 3.85469
ltoes -13.8848
1572
root 10.8151 17.6949 -22.4415 1.8389 -13.2091 -0.0715448
lowerback 8.66807 2.08026 -4.53999
upperback 3.95783 2.36387 -1.29976
thorax -0.877852 1.13317 0.983355
lowerneck -2.53134 -0.321156 -1.84456
upperneck 3.84892 -0.408988 1.35581
head 1.62979 -0.203433 0.725035
rclavicle 4.05521e-014 -3.97569e-015
rhumerus -23.9626 3.35567 -77.0601
rradius 55.4092
rwrist -12.4864
rhand -28.5552 44.9004
rfingers 7.12502
rthumb -1.92215 14.9293
lclavicle 4.05521e-014 -3.97569e-015
lhumerus -28.0501 8.85537 77.363
lradius 56.3604
lwrist 1.86733
lhand -22.0794 9.93014
lfingers 7.12502
lthumb 4.33208 -320.134
rfemur -29.2583 9.56174 12.4923
rtibia 36.7067
rfoot -10.9163 -12.3577
rtoes 4.48757
lfemur -13.6223 -3.89973 -15.0602
ltibia 34.6646
lfoot -21.3962 4.32509
ltoes -13.2713
1573
root 10.814 17.6982 -22.5538 1.97926 -13.4029 -0.00399668
lowerback 8.40177 2.06009 -4.59709
upperback 3.88308 2.34777 -1.26266
thorax -0.811611 1.12439 1.06268
lowerneck -2.91569 -0.256161 -1.98287
upperneck 4.54586 -0.324603 1.58088
head 1.92398 -0.158687 0.825818
rclavicle -1.19271e-014 7.15625e-015
rhumerus -23.7991 3.68719 -77.0867
rradius 55.5359
rwrist -12.1638
rhand -28.1594 45.6237
rfingers 7.12502
rthumb -1.53984 15.6495
lclavicle -1.19271e-014 7.15625e-015
lhumerus -29.1135 9.27827 77.34
lradius 56.8527
lwrist 2.52146
lhand -21.8045 10.7088
lfingers 7.12502
lthumb 4.59757 -319.361
rfemur -28.8085 8.83763 12.6165
rtibia 37.9537
rfoot -11.7395 -13.7368
rtoes 6.68943
lfemur -14.1449 -3.98165 -14.9832
ltibia 34.6455
lfoot -21.192 4.48958
ltoes -12.49
